<?xml version="1.0" encoding="UTF-8"?>
<svg width="32" height="32" viewBox="0 0 32 32" fill="none" xmlns="http://www.w3.org/2000/svg">
    <!-- Background circle -->
    <circle cx="16" cy="16" r="16" fill="#1e3799"/>
    
    <!-- Stylized car shape -->
    <path d="M6 18.5C6 17.5 6.5 16.5 7.5 16L10 14.5C11 14 12 13.5 13 13.5H19C20 13.5 21 14 22 14.5L24.5 16C25.5 16.5 26 17.5 26 18.5V20.5C26 21.5 25.5 22 24.5 22H7.5C6.5 22 6 21.5 6 20.5V18.5Z" fill="white"/>
    
    <!-- Wheels -->
    <circle cx="11" cy="20" r="2" fill="#1e3799" stroke="white"/>
    <circle cx="21" cy="20" r="2" fill="#1e3799" stroke="white"/>
    
    <!-- Roof line -->
    <path d="M13 13.5L15 10H19L21 13.5" stroke="white" stroke-width="1.5" fill="none"/>
</svg> 