<?xml version="1.0" encoding="UTF-8"?>
<svg width="200" height="200" viewBox="0 0 200 200" xmlns="http://www.w3.org/2000/svg">
    <!-- Background Circle -->
    <circle cx="100" cy="100" r="90" fill="#1e3799" opacity="0.1"/>
    
    <!-- Car Silhouette -->
    <path d="M40 120 
             C40 120 60 120 80 120 
             L90 100 
             C90 100 100 90 120 90 
             C140 90 150 100 150 100 
             L160 120 
             C160 120 180 120 180 120 
             C180 120 175 140 160 140 
             L40 140 
             C25 140 20 120 40 120 Z" 
          fill="#1e3799"/>
    
    <!-- Wheels -->
    <circle cx="70" cy="140" r="15" fill="#4a69bd"/>
    <circle cx="150" cy="140" r="15" fill="#4a69bd"/>
    
    <!-- Highlights -->
    <path d="M90 100 
             C90 100 100 90 120 90 
             C140 90 150 100 150 100" 
          fill="none" 
          stroke="#fff" 
          stroke-width="2"/>
</svg>